STARTFONT 2.1
FONT -rfx-Courier-Bold-R-Normal--8-80-75-75-M-50-Microsoft-CP1251
SIZE 8 75 75
FONTBOUNDINGBOX 6 10 -1 -1

STARTPROPERTIES 34
FOUNDRY "rfx"
FAMILY_NAME "Courier"
WEIGHT_NAME "Bold"
SLANT "R"
SETWIDTH_NAME "Normal"
ADD_STYLE_NAME ""
PIXEL_SIZE 8
POINT_SIZE 80
RESOLUTION_X 75
RESOLUTION_Y 75
SPACING "M"
AVERAGE_WIDTH 50
CHARSET_REGISTRY "Microsoft"
CHARSET_ENCODING "CP1251"
CAP_HEIGHT 5
X_HEIGHT 4
FACE_NAME "Courier Bold"
COPYRIGHT "Copyright (c) 1984, 1987 Adobe Systems Incorporated. All Rights Reserved. Copyright (c) 1988, 1991 Digital Equipment Corporation. All Rights Reserved."
NOTICE "No mark"
_DEC_DEVICE_FONTNAMES "PS=Courier-Bold"
_DEC_PRODUCTINFO "DECwindows Fonts V2.2, 07-Nov-1991"
RELATIVE_SETWIDTH 50
RELATIVE_WEIGHT 70
CHARSET_COLLECTIONS "ASCII ISO8859-1 ADOBE-STANDARD"
FULL_NAME "Courier Bold"
COPYRIGHT2 "Cyrillic and line drawing glyphs copyright 2000 Dmitry Yu. Bolkhovityanov, bolkhov@inp.nsk.su"
SOURCEDATE "Sun Jan 23 14:33:23 2000"
PKGVERSION "1.1"
ASSEMBLER "cvtbdf.pl (Linux)"
WEIGHT 10
QUAD_WIDTH 5
DEFAULT_CHAR 63
FONT_DESCENT 2
FONT_ASCENT 7
ENDPROPERTIES

CHARS 243

STARTCHAR uni0002
ENCODING 2
SWIDTH 600 0
DWIDTH 5 0
BBX 4 7 0 -1
BITMAP
50
50
F0
50
F0
50
50
ENDCHAR

STARTCHAR uni0003
ENCODING 3
SWIDTH 600 0
DWIDTH 5 0
BBX 3 5 1 0
BITMAP
E0
40
40
40
E0
ENDCHAR

STARTCHAR uni0004
ENCODING 4
SWIDTH 600 0
DWIDTH 5 0
BBX 4 5 0 0
BITMAP
E0
40
40
50
F0
ENDCHAR

STARTCHAR uni0005
ENCODING 5
SWIDTH 600 0
DWIDTH 5 0
BBX 5 5 0 0
BITMAP
C8
78
78
68
C8
ENDCHAR

STARTCHAR uni0006
ENCODING 6
SWIDTH 600 0
DWIDTH 5 0
BBX 4 5 0 0
BITMAP
30
10
10
90
60
ENDCHAR

STARTCHAR uni0007
ENCODING 7
SWIDTH 600 0
DWIDTH 5 0
BBX 3 3 0 3
BITMAP
40
A0
40
ENDCHAR

STARTCHAR uni0008
ENCODING 8
SWIDTH 600 0
DWIDTH 5 0
BBX 4 5 0 0
BITMAP
40
F0
40
00
F0
ENDCHAR

STARTCHAR uni000A
ENCODING 10
SWIDTH 600 0
DWIDTH 5 0
BBX 4 5 0 0
BITMAP
D0
70
60
50
D0
ENDCHAR

STARTCHAR uni000B
ENCODING 11
SWIDTH 600 0
DWIDTH 5 0
BBX 3 6 0 2
BITMAP
60
60
60
60
60
E0
ENDCHAR

STARTCHAR uni000C
ENCODING 12
SWIDTH 600 0
DWIDTH 5 0
BBX 3 4 0 -1
BITMAP
E0
60
60
60
ENDCHAR

STARTCHAR uni000D
ENCODING 13
SWIDTH 600 0
DWIDTH 5 0
BBX 4 4 1 -1
BITMAP
F0
C0
C0
C0
ENDCHAR

STARTCHAR uni000E
ENCODING 14
SWIDTH 600 0
DWIDTH 5 0
BBX 4 6 1 2
BITMAP
C0
C0
C0
C0
C0
F0
ENDCHAR

STARTCHAR uni000F
ENCODING 15
SWIDTH 600 0
DWIDTH 5 0
BBX 5 9 0 -1
BITMAP
60
60
60
60
60
F8
60
60
60
ENDCHAR

STARTCHAR uni0012
ENCODING 18
SWIDTH 600 0
DWIDTH 5 0
BBX 5 1 0 2
BITMAP
F8
ENDCHAR

STARTCHAR uni0015
ENCODING 21
SWIDTH 600 0
DWIDTH 5 0
BBX 4 9 1 -1
BITMAP
C0
C0
C0
C0
C0
F0
C0
C0
C0
ENDCHAR

STARTCHAR uni0016
ENCODING 22
SWIDTH 600 0
DWIDTH 5 0
BBX 3 9 0 -1
BITMAP
60
60
60
60
60
E0
60
60
60
ENDCHAR

STARTCHAR uni0017
ENCODING 23
SWIDTH 600 0
DWIDTH 5 0
BBX 5 6 0 2
BITMAP
60
60
60
60
60
F8
ENDCHAR

STARTCHAR uni0018
ENCODING 24
SWIDTH 600 0
DWIDTH 5 0
BBX 5 4 0 -1
BITMAP
F8
60
60
60
ENDCHAR

STARTCHAR uni0019
ENCODING 25
SWIDTH 600 0
DWIDTH 5 0
BBX 2 9 1 -1
BITMAP
C0
C0
C0
C0
C0
C0
C0
C0
C0
ENDCHAR

STARTCHAR uni001A
ENCODING 26
SWIDTH 600 0
DWIDTH 5 0
BBX 3 5 0 0
BITMAP
20
40
80
40
20
ENDCHAR

STARTCHAR uni001B
ENCODING 27
SWIDTH 600 0
DWIDTH 5 0
BBX 3 5 1 0
BITMAP
80
40
20
40
80
ENDCHAR

STARTCHAR uni001C
ENCODING 28
SWIDTH 600 0
DWIDTH 5 0
BBX 4 5 0 -1
BITMAP
E0
50
50
60
E0
ENDCHAR

STARTCHAR uni001E
ENCODING 30
SWIDTH 600 0
DWIDTH 5 0
BBX 4 6 0 0
BITMAP
30
40
E0
40
50
E0
ENDCHAR

STARTCHAR uni001F
ENCODING 31
SWIDTH 600 0
DWIDTH 5 0
BBX 2 1 2 3
BITMAP
C0
ENDCHAR

STARTCHAR space
ENCODING 32
SWIDTH 600 0
DWIDTH 5 0
BBX 0 0 0 0
BITMAP
ENDCHAR

STARTCHAR exclam
ENCODING 33
SWIDTH 600 0
DWIDTH 5 0
BBX 2 6 1 0
BITMAP
C0
C0
C0
C0
00
C0
ENDCHAR

STARTCHAR quotedbl
ENCODING 34
SWIDTH 600 0
DWIDTH 5 0
BBX 3 2 1 3
BITMAP
A0
A0
ENDCHAR

STARTCHAR numbersign
ENCODING 35
SWIDTH 600 0
DWIDTH 5 0
BBX 4 7 0 -1
BITMAP
50
50
F0
50
F0
50
50
ENDCHAR

STARTCHAR dollar
ENCODING 36
SWIDTH 600 0
DWIDTH 5 0
BBX 4 7 0 -1
BITMAP
20
70
C0
70
90
E0
40
ENDCHAR

STARTCHAR percent
ENCODING 37
SWIDTH 600 0
DWIDTH 5 0
BBX 5 6 0 0
BITMAP
C0
C8
30
60
98
18
ENDCHAR

STARTCHAR ampersand
ENCODING 38
SWIDTH 600 0
DWIDTH 5 0
BBX 4 5 0 0
BITMAP
60
80
F0
A0
D0
ENDCHAR

STARTCHAR quotesingle
ENCODING 39
SWIDTH 600 0
DWIDTH 5 0
BBX 1 3 2 4
BITMAP
80
80
80
ENDCHAR

STARTCHAR parenleft
ENCODING 40
SWIDTH 600 0
DWIDTH 5 0
BBX 2 7 1 -1
BITMAP
40
80
80
80
80
40
40
ENDCHAR

STARTCHAR parenright
ENCODING 41
SWIDTH 600 0
DWIDTH 5 0
BBX 2 7 1 -1
BITMAP
80
40
40
40
40
80
80
ENDCHAR

STARTCHAR asterisk
ENCODING 42
SWIDTH 600 0
DWIDTH 5 0
BBX 3 3 0 3
BITMAP
40
E0
A0
ENDCHAR

STARTCHAR plus
ENCODING 43
SWIDTH 600 0
DWIDTH 5 0
BBX 4 5 0 0
BITMAP
40
40
F0
40
40
ENDCHAR

STARTCHAR comma
ENCODING 44
SWIDTH 600 0
DWIDTH 5 0
BBX 2 2 1 -1
BITMAP
40
C0
ENDCHAR

STARTCHAR hyphen
ENCODING 45
SWIDTH 600 0
DWIDTH 5 0
BBX 4 1 0 2
BITMAP
F0
ENDCHAR

STARTCHAR period
ENCODING 46
SWIDTH 600 0
DWIDTH 5 0
BBX 2 1 1 0
BITMAP
C0
ENDCHAR

STARTCHAR slash
ENCODING 47
SWIDTH 600 0
DWIDTH 5 0
BBX 4 7 0 0
BITMAP
10
20
20
40
40
80
80
ENDCHAR

STARTCHAR zero
ENCODING 48
SWIDTH 600 0
DWIDTH 5 0
BBX 4 6 0 0
BITMAP
60
D0
D0
D0
D0
60
ENDCHAR

STARTCHAR one
ENCODING 49
SWIDTH 600 0
DWIDTH 5 0
BBX 4 6 0 0
BITMAP
20
E0
20
20
20
F0
ENDCHAR

STARTCHAR two
ENCODING 50
SWIDTH 600 0
DWIDTH 5 0
BBX 4 6 0 0
BITMAP
F0
90
30
60
C0
F0
ENDCHAR

STARTCHAR three
ENCODING 51
SWIDTH 600 0
DWIDTH 5 0
BBX 4 6 0 0
BITMAP
F0
10
70
10
D0
E0
ENDCHAR

STARTCHAR four
ENCODING 52
SWIDTH 600 0
DWIDTH 5 0
BBX 5 6 0 0
BITMAP
30
70
D0
F8
10
10
ENDCHAR

STARTCHAR five
ENCODING 53
SWIDTH 600 0
DWIDTH 5 0
BBX 4 6 0 0
BITMAP
F0
C0
F0
10
D0
E0
ENDCHAR

STARTCHAR six
ENCODING 54
SWIDTH 600 0
DWIDTH 5 0
BBX 4 6 0 0
BITMAP
70
C0
E0
D0
D0
60
ENDCHAR

STARTCHAR seven
ENCODING 55
SWIDTH 600 0
DWIDTH 5 0
BBX 4 6 0 0
BITMAP
F0
90
30
60
40
40
ENDCHAR

STARTCHAR eight
ENCODING 56
SWIDTH 600 0
DWIDTH 5 0
BBX 4 6 0 0
BITMAP
60
D0
60
D0
D0
60
ENDCHAR

STARTCHAR nine
ENCODING 57
SWIDTH 600 0
DWIDTH 5 0
BBX 4 6 0 0
BITMAP
60
D0
D0
70
10
E0
ENDCHAR

STARTCHAR colon
ENCODING 58
SWIDTH 600 0
DWIDTH 5 0
BBX 2 4 1 0
BITMAP
C0
00
00
C0
ENDCHAR

STARTCHAR semicolon
ENCODING 59
SWIDTH 600 0
DWIDTH 5 0
BBX 2 5 0 -1
BITMAP
C0
00
00
40
C0
ENDCHAR

STARTCHAR less
ENCODING 60
SWIDTH 600 0
DWIDTH 5 0
BBX 3 5 0 0
BITMAP
20
40
80
40
20
ENDCHAR

STARTCHAR equal
ENCODING 61
SWIDTH 600 0
DWIDTH 5 0
BBX 4 3 0 1
BITMAP
F0
00
F0
ENDCHAR

STARTCHAR greater
ENCODING 62
SWIDTH 600 0
DWIDTH 5 0
BBX 3 5 1 0
BITMAP
80
40
20
40
80
ENDCHAR

STARTCHAR question
ENCODING 63
SWIDTH 600 0
DWIDTH 5 0
BBX 4 6 0 0
BITMAP
60
B0
30
60
00
60
ENDCHAR

STARTCHAR at
ENCODING 64
SWIDTH 600 0
DWIDTH 5 0
BBX 5 6 0 0
BITMAP
70
90
B0
B8
80
70
ENDCHAR

STARTCHAR A
ENCODING 65
SWIDTH 600 0
DWIDTH 5 0
BBX 4 5 0 0
BITMAP
F0
50
70
50
D0
ENDCHAR

STARTCHAR B
ENCODING 66
SWIDTH 600 0
DWIDTH 5 0
BBX 4 5 0 0
BITMAP
F0
50
70
50
F0
ENDCHAR

STARTCHAR C
ENCODING 67
SWIDTH 600 0
DWIDTH 5 0
BBX 4 5 0 0
BITMAP
70
D0
C0
D0
60
ENDCHAR

STARTCHAR D
ENCODING 68
SWIDTH 600 0
DWIDTH 5 0
BBX 4 5 0 0
BITMAP
F0
50
50
50
F0
ENDCHAR

STARTCHAR E
ENCODING 69
SWIDTH 600 0
DWIDTH 5 0
BBX 4 5 0 0
BITMAP
F0
50
60
50
F0
ENDCHAR

STARTCHAR F
ENCODING 70
SWIDTH 600 0
DWIDTH 5 0
BBX 4 5 0 0
BITMAP
F0
50
60
40
E0
ENDCHAR

STARTCHAR G
ENCODING 71
SWIDTH 600 0
DWIDTH 5 0
BBX 4 5 0 0
BITMAP
70
C0
D0
D0
70
ENDCHAR

STARTCHAR H
ENCODING 72
SWIDTH 600 0
DWIDTH 5 0
BBX 4 5 0 0
BITMAP
D0
50
70
50
D0
ENDCHAR

STARTCHAR I
ENCODING 73
SWIDTH 600 0
DWIDTH 5 0
BBX 3 5 1 0
BITMAP
E0
40
40
40
E0
ENDCHAR

STARTCHAR J
ENCODING 74
SWIDTH 600 0
DWIDTH 5 0
BBX 4 5 0 0
BITMAP
30
10
10
90
60
ENDCHAR

STARTCHAR K
ENCODING 75
SWIDTH 600 0
DWIDTH 5 0
BBX 4 5 0 0
BITMAP
D0
70
60
50
D0
ENDCHAR

STARTCHAR L
ENCODING 76
SWIDTH 600 0
DWIDTH 5 0
BBX 4 5 0 0
BITMAP
E0
40
40
50
F0
ENDCHAR

STARTCHAR M
ENCODING 77
SWIDTH 600 0
DWIDTH 5 0
BBX 5 5 0 0
BITMAP
C8
78
78
68
C8
ENDCHAR

STARTCHAR N
ENCODING 78
SWIDTH 600 0
DWIDTH 5 0
BBX 4 5 0 0
BITMAP
D0
70
70
50
D0
ENDCHAR

STARTCHAR O
ENCODING 79
SWIDTH 600 0
DWIDTH 5 0
BBX 4 5 0 0
BITMAP
60
D0
D0
D0
60
ENDCHAR

STARTCHAR P
ENCODING 80
SWIDTH 600 0
DWIDTH 5 0
BBX 4 5 0 0
BITMAP
F0
50
70
40
E0
ENDCHAR

STARTCHAR Q
ENCODING 81
SWIDTH 600 0
DWIDTH 5 0
BBX 5 5 0 0
BITMAP
60
D0
D0
D0
78
ENDCHAR

STARTCHAR R
ENCODING 82
SWIDTH 600 0
DWIDTH 5 0
BBX 5 5 0 0
BITMAP
F0
50
70
50
C8
ENDCHAR

STARTCHAR S
ENCODING 83
SWIDTH 600 0
DWIDTH 5 0
BBX 4 5 0 0
BITMAP
70
D0
60
B0
E0
ENDCHAR

STARTCHAR T
ENCODING 84
SWIDTH 600 0
DWIDTH 5 0
BBX 5 5 0 0
BITMAP
F8
A8
20
20
70
ENDCHAR

STARTCHAR U
ENCODING 85
SWIDTH 600 0
DWIDTH 5 0
BBX 4 5 0 0
BITMAP
D0
50
50
50
70
ENDCHAR

STARTCHAR V
ENCODING 86
SWIDTH 600 0
DWIDTH 5 0
BBX 4 5 0 0
BITMAP
D0
50
50
70
20
ENDCHAR

STARTCHAR W
ENCODING 87
SWIDTH 600 0
DWIDTH 5 0
BBX 5 5 0 0
BITMAP
88
A8
A8
A8
50
ENDCHAR

STARTCHAR X
ENCODING 88
SWIDTH 600 0
DWIDTH 5 0
BBX 5 5 0 0
BITMAP
D0
70
20
70
D8
ENDCHAR

STARTCHAR Y
ENCODING 89
SWIDTH 600 0
DWIDTH 5 0
BBX 5 5 0 0
BITMAP
D8
70
20
20
70
ENDCHAR

STARTCHAR Z
ENCODING 90
SWIDTH 600 0
DWIDTH 5 0
BBX 4 5 0 0
BITMAP
F0
B0
60
D0
F0
ENDCHAR

STARTCHAR bracketleft
ENCODING 91
SWIDTH 600 0
DWIDTH 5 0
BBX 2 7 1 -1
BITMAP
C0
80
80
80
80
80
C0
ENDCHAR

STARTCHAR backslash
ENCODING 92
SWIDTH 600 0
DWIDTH 5 0
BBX 3 7 0 0
BITMAP
80
80
40
40
40
20
20
ENDCHAR

STARTCHAR bracketright
ENCODING 93
SWIDTH 600 0
DWIDTH 5 0
BBX 2 7 1 -1
BITMAP
C0
40
40
40
40
40
C0
ENDCHAR

STARTCHAR asciicircum
ENCODING 94
SWIDTH 600 0
DWIDTH 5 0
BBX 5 3 0 3
BITMAP
20
70
D8
ENDCHAR

STARTCHAR underscore
ENCODING 95
SWIDTH 600 0
DWIDTH 5 0
BBX 5 1 0 -1
BITMAP
F8
ENDCHAR

STARTCHAR grave
ENCODING 96
SWIDTH 600 0
DWIDTH 5 0
BBX 2 2 2 7
BITMAP
80
40
ENDCHAR

STARTCHAR a
ENCODING 97
SWIDTH 600 0
DWIDTH 5 0
BBX 4 4 0 0
BITMAP
E0
70
B0
D0
ENDCHAR

STARTCHAR b
ENCODING 98
SWIDTH 600 0
DWIDTH 5 0
BBX 4 6 0 0
BITMAP
C0
40
70
50
50
F0
ENDCHAR

STARTCHAR c
ENCODING 99
SWIDTH 600 0
DWIDTH 5 0
BBX 4 4 0 0
BITMAP
70
C0
D0
60
ENDCHAR

STARTCHAR d
ENCODING 100
SWIDTH 600 0
DWIDTH 5 0
BBX 5 6 0 0
BITMAP
30
10
70
D0
D0
78
ENDCHAR

STARTCHAR e
ENCODING 101
SWIDTH 600 0
DWIDTH 5 0
BBX 4 4 0 0
BITMAP
70
F0
C0
70
ENDCHAR

STARTCHAR f
ENCODING 102
SWIDTH 600 0
DWIDTH 5 0
BBX 4 6 1 0
BITMAP
70
40
E0
40
40
E0
ENDCHAR

STARTCHAR g
ENCODING 103
SWIDTH 600 0
DWIDTH 5 0
BBX 4 5 0 -1
BITMAP
70
D0
50
30
E0
ENDCHAR

STARTCHAR h
ENCODING 104
SWIDTH 600 0
DWIDTH 5 0
BBX 4 6 0 0
BITMAP
C0
40
70
50
50
D0
ENDCHAR

STARTCHAR i
ENCODING 105
SWIDTH 600 0
DWIDTH 5 0
BBX 3 6 1 0
BITMAP
C0
00
C0
40
40
E0
ENDCHAR

STARTCHAR j
ENCODING 106
SWIDTH 600 0
DWIDTH 5 0
BBX 3 7 0 -1
BITMAP
60
00
E0
20
20
60
C0
ENDCHAR

STARTCHAR k
ENCODING 107
SWIDTH 600 0
DWIDTH 5 0
BBX 5 6 0 0
BITMAP
C0
40
50
60
70
48
ENDCHAR

STARTCHAR l
ENCODING 108
SWIDTH 600 0
DWIDTH 5 0
BBX 3 6 1 0
BITMAP
C0
40
40
40
40
E0
ENDCHAR

STARTCHAR m
ENCODING 109
SWIDTH 600 0
DWIDTH 5 0
BBX 5 4 0 0
BITMAP
F0
A8
A8
A8
ENDCHAR

STARTCHAR n
ENCODING 110
SWIDTH 600 0
DWIDTH 5 0
BBX 4 4 0 0
BITMAP
F0
50
50
D0
ENDCHAR

STARTCHAR o
ENCODING 111
SWIDTH 600 0
DWIDTH 5 0
BBX 4 4 0 0
BITMAP
60
D0
D0
60
ENDCHAR

STARTCHAR p
ENCODING 112
SWIDTH 600 0
DWIDTH 5 0
BBX 4 5 0 -1
BITMAP
E0
50
50
60
E0
ENDCHAR

STARTCHAR q
ENCODING 113
SWIDTH 600 0
DWIDTH 5 0
BBX 5 5 0 -1
BITMAP
70
D0
50
30
78
ENDCHAR

STARTCHAR r
ENCODING 114
SWIDTH 600 0
DWIDTH 5 0
BBX 4 4 0 0
BITMAP
F0
50
40
E0
ENDCHAR

STARTCHAR s
ENCODING 115
SWIDTH 600 0
DWIDTH 5 0
BBX 4 4 0 0
BITMAP
70
E0
10
E0
ENDCHAR

STARTCHAR t
ENCODING 116
SWIDTH 600 0
DWIDTH 5 0
BBX 4 6 0 0
BITMAP
40
40
F0
40
40
70
ENDCHAR

STARTCHAR u
ENCODING 117
SWIDTH 600 0
DWIDTH 5 0
BBX 5 4 0 0
BITMAP
D0
50
50
78
ENDCHAR

STARTCHAR v
ENCODING 118
SWIDTH 600 0
DWIDTH 5 0
BBX 4 4 0 0
BITMAP
D0
50
70
20
ENDCHAR

STARTCHAR w
ENCODING 119
SWIDTH 600 0
DWIDTH 5 0
BBX 5 4 0 0
BITMAP
88
A8
F8
50
ENDCHAR

STARTCHAR x
ENCODING 120
SWIDTH 600 0
DWIDTH 5 0
BBX 4 4 0 0
BITMAP
D0
60
60
D0
ENDCHAR

STARTCHAR y
ENCODING 121
SWIDTH 600 0
DWIDTH 5 0
BBX 4 5 0 -1
BITMAP
D0
50
70
30
E0
ENDCHAR

STARTCHAR z
ENCODING 122
SWIDTH 600 0
DWIDTH 5 0
BBX 4 4 0 0
BITMAP
F0
A0
50
F0
ENDCHAR

STARTCHAR braceleft
ENCODING 123
SWIDTH 600 0
DWIDTH 5 0
BBX 3 7 1 -1
BITMAP
60
40
40
80
40
40
60
ENDCHAR

STARTCHAR bar
ENCODING 124
SWIDTH 600 0
DWIDTH 5 0
BBX 2 7 1 -1
BITMAP
C0
C0
C0
C0
C0
C0
C0
ENDCHAR

STARTCHAR braceright
ENCODING 125
SWIDTH 600 0
DWIDTH 5 0
BBX 3 7 1 -1
BITMAP
C0
40
40
20
40
40
C0
ENDCHAR

STARTCHAR asciitilde
ENCODING 126
SWIDTH 600 0
DWIDTH 5 0
BBX 4 2 0 3
BITMAP
50
A0
ENDCHAR

STARTCHAR afii10051
ENCODING 128
SWIDTH 600 0
DWIDTH 5 0
BBX 4 5 0 0
BITMAP
F0
50
50
50
F0
ENDCHAR

STARTCHAR afii10052
ENCODING 129
SWIDTH 600 0
DWIDTH 5 0
BBX 4 5 0 0
BITMAP
F0
50
40
40
E0
ENDCHAR

STARTCHAR quotesinglbase
ENCODING 130
SWIDTH 600 0
DWIDTH 5 0
BBX 1 3 2 4
BITMAP
80
80
80
ENDCHAR

STARTCHAR afii10100
ENCODING 131
SWIDTH 600 0
DWIDTH 5 0
BBX 4 4 0 0
BITMAP
F0
50
40
E0
ENDCHAR

STARTCHAR quotedblbase
ENCODING 132
SWIDTH 600 0
DWIDTH 5 0
BBX 3 2 1 3
BITMAP
A0
A0
ENDCHAR

STARTCHAR ellipsis
ENCODING 133
SWIDTH 600 0
DWIDTH 5 0
BBX 2 1 2 3
BITMAP
C0
ENDCHAR

STARTCHAR dagger
ENCODING 134
SWIDTH 600 0
DWIDTH 5 0
BBX 4 5 0 0
BITMAP
40
40
F0
40
40
ENDCHAR

STARTCHAR Euro
ENCODING 136
SWIDTH 600 0
DWIDTH 5 0
BBX 4 5 0 0
BITMAP
70
C0
E0
C0
70
ENDCHAR

STARTCHAR afii10058
ENCODING 138
SWIDTH 600 0
DWIDTH 5 0
BBX 4 5 0 0
BITMAP
E0
40
40
50
F0
ENDCHAR

STARTCHAR guilsinglleft
ENCODING 139
SWIDTH 600 0
DWIDTH 5 0
BBX 4 3 0 1
BITMAP
50
A0
50
ENDCHAR

STARTCHAR afii10059
ENCODING 140
SWIDTH 600 0
DWIDTH 5 0
BBX 4 5 0 0
BITMAP
D0
70
70
50
D0
ENDCHAR

STARTCHAR afii10061
ENCODING 141
SWIDTH 600 0
DWIDTH 5 0
BBX 4 5 0 0
BITMAP
D0
70
60
50
D0
ENDCHAR

STARTCHAR afii10060
ENCODING 142
SWIDTH 600 0
DWIDTH 5 0
BBX 4 6 0 0
BITMAP
C0
40
70
50
50
D0
ENDCHAR

STARTCHAR afii10145
ENCODING 143
SWIDTH 600 0
DWIDTH 5 0
BBX 5 6 0 -1
BITMAP
A8
A8
A8
A8
F8
08
ENDCHAR

STARTCHAR afii10099
ENCODING 144
SWIDTH 600 0
DWIDTH 5 0
BBX 5 6 0 0
BITMAP
30
10
70
D0
D0
78
ENDCHAR

STARTCHAR quoteleft
ENCODING 145
SWIDTH 600 0
DWIDTH 5 0
BBX 1 3 2 4
BITMAP
80
80
80
ENDCHAR

STARTCHAR quoteright
ENCODING 146
SWIDTH 600 0
DWIDTH 5 0
BBX 1 3 2 4
BITMAP
80
80
80
ENDCHAR

STARTCHAR quotedblleft
ENCODING 147
SWIDTH 600 0
DWIDTH 5 0
BBX 3 2 1 3
BITMAP
A0
A0
ENDCHAR

STARTCHAR quotedblright
ENCODING 148
SWIDTH 600 0
DWIDTH 5 0
BBX 3 2 1 3
BITMAP
A0
A0
ENDCHAR

STARTCHAR bullet
ENCODING 149
SWIDTH 600 0
DWIDTH 5 0
BBX 2 1 2 3
BITMAP
C0
ENDCHAR

STARTCHAR endash
ENCODING 150
SWIDTH 600 0
DWIDTH 5 0
BBX 4 1 0 2
BITMAP
F0
ENDCHAR

STARTCHAR emdash
ENCODING 151
SWIDTH 600 0
DWIDTH 5 0
BBX 4 1 0 2
BITMAP
F0
ENDCHAR

STARTCHAR afii10106
ENCODING 154
SWIDTH 600 0
DWIDTH 5 0
BBX 3 6 1 0
BITMAP
C0
40
40
40
40
E0
ENDCHAR

STARTCHAR guilsinglright
ENCODING 155
SWIDTH 600 0
DWIDTH 5 0
BBX 4 3 0 1
BITMAP
A0
50
A0
ENDCHAR

STARTCHAR afii10107
ENCODING 156
SWIDTH 600 0
DWIDTH 5 0
BBX 4 4 0 0
BITMAP
F0
50
50
D0
ENDCHAR

STARTCHAR afii10109
ENCODING 157
SWIDTH 600 0
DWIDTH 5 0
BBX 5 6 0 0
BITMAP
C0
40
50
60
70
48
ENDCHAR

STARTCHAR afii10108
ENCODING 158
SWIDTH 600 0
DWIDTH 5 0
BBX 4 6 0 0
BITMAP
C0
40
70
50
50
D0
ENDCHAR

STARTCHAR afii10193
ENCODING 159
SWIDTH 600 0
DWIDTH 5 0
BBX 5 5 0 -1
BITMAP
A8
A8
A8
F8
08
ENDCHAR

STARTCHAR space
ENCODING 160
SWIDTH 600 0
DWIDTH 5 0
BBX 0 0 0 0
BITMAP
ENDCHAR

STARTCHAR afii10062
ENCODING 161
SWIDTH 600 0
DWIDTH 5 0
BBX 5 7 0 0
BITMAP
70
00
D8
50
20
20
C0
ENDCHAR

STARTCHAR afii10110
ENCODING 162
SWIDTH 600 0
DWIDTH 5 0
BBX 4 7 0 -1
BITMAP
60
00
D0
50
70
30
E0
ENDCHAR

STARTCHAR afii10057
ENCODING 163
SWIDTH 600 0
DWIDTH 5 0
BBX 4 5 0 0
BITMAP
30
10
10
90
60
ENDCHAR

STARTCHAR currency
ENCODING 164
SWIDTH 600 0
DWIDTH 5 0
BBX 4 4 0 1
BITMAP
90
60
60
90
ENDCHAR

STARTCHAR afii10050
ENCODING 165
SWIDTH 600 0
DWIDTH 5 0
BBX 4 6 0 0
BITMAP
10
F0
40
40
40
E0
ENDCHAR

STARTCHAR brokenbar
ENCODING 166
SWIDTH 600 0
DWIDTH 5 0
BBX 2 7 1 -1
BITMAP
C0
C0
C0
00
C0
C0
C0
ENDCHAR

STARTCHAR section
ENCODING 167
SWIDTH 600 0
DWIDTH 5 0
BBX 3 7 1 -1
BITMAP
60
80
C0
A0
60
20
C0
ENDCHAR

STARTCHAR afii10023
ENCODING 168
SWIDTH 600 0
DWIDTH 5 0
BBX 4 7 0 0
BITMAP
50
00
F0
50
60
50
F0
ENDCHAR

STARTCHAR copyright
ENCODING 169
SWIDTH 600 0
DWIDTH 5 0
BBX 5 7 0 -1
BITMAP
70
88
B8
E8
B8
88
70
ENDCHAR

STARTCHAR afii10053
ENCODING 170
SWIDTH 600 0
DWIDTH 5 0
BBX 4 5 0 0
BITMAP
70
C0
E0
C0
70
ENDCHAR

STARTCHAR guillemotleft
ENCODING 171
SWIDTH 600 0
DWIDTH 5 0
BBX 4 3 0 1
BITMAP
50
A0
50
ENDCHAR

STARTCHAR logicalnot
ENCODING 172
SWIDTH 600 0
DWIDTH 5 0
BBX 4 2 0 2
BITMAP
F0
10
ENDCHAR

STARTCHAR hyphen
ENCODING 173
SWIDTH 600 0
DWIDTH 5 0
BBX 4 1 0 2
BITMAP
F0
ENDCHAR

STARTCHAR registered
ENCODING 174
SWIDTH 600 0
DWIDTH 5 0
BBX 5 7 0 -1
BITMAP
70
88
E8
E8
D8
88
70
ENDCHAR

STARTCHAR afii10056
ENCODING 175
SWIDTH 600 0
DWIDTH 5 0
BBX 3 7 1 0
BITMAP
A0
00
E0
40
40
40
E0
ENDCHAR

STARTCHAR degree
ENCODING 176
SWIDTH 600 0
DWIDTH 5 0
BBX 3 3 0 3
BITMAP
40
A0
40
ENDCHAR

STARTCHAR plusminus
ENCODING 177
SWIDTH 600 0
DWIDTH 5 0
BBX 4 5 0 0
BITMAP
40
F0
40
00
F0
ENDCHAR

STARTCHAR afii10055
ENCODING 178
SWIDTH 600 0
DWIDTH 5 0
BBX 3 5 1 0
BITMAP
E0
40
40
40
E0
ENDCHAR

STARTCHAR afii10103
ENCODING 179
SWIDTH 600 0
DWIDTH 5 0
BBX 3 6 1 0
BITMAP
C0
00
C0
40
40
E0
ENDCHAR

STARTCHAR afii10098
ENCODING 180
SWIDTH 600 0
DWIDTH 5 0
BBX 4 5 0 0
BITMAP
10
F0
40
40
E0
ENDCHAR

STARTCHAR mu
ENCODING 181
SWIDTH 600 0
DWIDTH 5 0
BBX 5 5 -1 -1
BITMAP
D0
50
50
78
40
ENDCHAR

STARTCHAR paragraph
ENCODING 182
SWIDTH 600 0
DWIDTH 5 0
BBX 4 7 0 -1
BITMAP
70
D0
D0
50
50
50
50
ENDCHAR

STARTCHAR periodcentered
ENCODING 183
SWIDTH 600 0
DWIDTH 5 0
BBX 2 1 2 3
BITMAP
C0
ENDCHAR

STARTCHAR afii10071
ENCODING 184
SWIDTH 600 0
DWIDTH 5 0
BBX 4 6 0 0
BITMAP
50
00
70
F0
C0
70
ENDCHAR

STARTCHAR afii61352
ENCODING 185
SWIDTH 600 0
DWIDTH 5 0
BBX 4 5 0 0
BITMAP
D0
70
70
50
D0
ENDCHAR

STARTCHAR afii10101
ENCODING 186
SWIDTH 600 0
DWIDTH 5 0
BBX 4 4 0 0
BITMAP
70
E0
C0
70
ENDCHAR

STARTCHAR guillemotright
ENCODING 187
SWIDTH 600 0
DWIDTH 5 0
BBX 4 3 0 1
BITMAP
A0
50
A0
ENDCHAR

STARTCHAR afii10105
ENCODING 188
SWIDTH 600 0
DWIDTH 5 0
BBX 3 7 0 -1
BITMAP
60
00
E0
20
20
60
C0
ENDCHAR

STARTCHAR afii10054
ENCODING 189
SWIDTH 600 0
DWIDTH 5 0
BBX 4 5 0 0
BITMAP
70
D0
60
B0
E0
ENDCHAR

STARTCHAR afii10102
ENCODING 190
SWIDTH 600 0
DWIDTH 5 0
BBX 4 4 0 0
BITMAP
70
E0
10
E0
ENDCHAR

STARTCHAR afii10104
ENCODING 191
SWIDTH 600 0
DWIDTH 5 0
BBX 3 6 1 0
BITMAP
A0
00
C0
40
40
E0
ENDCHAR

STARTCHAR afii10017
ENCODING 192
SWIDTH 600 0
DWIDTH 5 0
BBX 4 5 0 0
BITMAP
F0
50
70
50
D0
ENDCHAR

STARTCHAR afii10018
ENCODING 193
SWIDTH 600 0
DWIDTH 5 0
BBX 4 5 0 0
BITMAP
F0
40
70
50
F0
ENDCHAR

STARTCHAR afii10019
ENCODING 194
SWIDTH 600 0
DWIDTH 5 0
BBX 4 5 0 0
BITMAP
F0
50
70
50
F0
ENDCHAR

STARTCHAR afii10020
ENCODING 195
SWIDTH 600 0
DWIDTH 5 0
BBX 4 5 0 0
BITMAP
F0
50
40
40
E0
ENDCHAR

STARTCHAR afii10021
ENCODING 196
SWIDTH 600 0
DWIDTH 5 0
BBX 5 6 0 -1
BITMAP
78
50
50
50
F8
88
ENDCHAR

STARTCHAR afii10022
ENCODING 197
SWIDTH 600 0
DWIDTH 5 0
BBX 4 5 0 0
BITMAP
F0
50
60
50
F0
ENDCHAR

STARTCHAR afii10024
ENCODING 198
SWIDTH 600 0
DWIDTH 5 0
BBX 5 5 0 0
BITMAP
A8
70
20
70
A8
ENDCHAR

STARTCHAR afii10025
ENCODING 199
SWIDTH 600 0
DWIDTH 5 0
BBX 4 5 0 0
BITMAP
E0
30
60
30
E0
ENDCHAR

STARTCHAR afii10026
ENCODING 200
SWIDTH 600 0
DWIDTH 5 0
BBX 4 5 0 0
BITMAP
D0
50
70
70
D0
ENDCHAR

STARTCHAR afii10027
ENCODING 201
SWIDTH 600 0
DWIDTH 5 0
BBX 4 7 0 0
BITMAP
70
00
D0
50
70
70
D0
ENDCHAR

STARTCHAR afii10028
ENCODING 202
SWIDTH 600 0
DWIDTH 5 0
BBX 4 5 0 0
BITMAP
D0
70
60
50
D0
ENDCHAR

STARTCHAR afii10029
ENCODING 203
SWIDTH 600 0
DWIDTH 5 0
BBX 5 5 0 0
BITMAP
78
50
50
D0
D8
ENDCHAR

STARTCHAR afii10030
ENCODING 204
SWIDTH 600 0
DWIDTH 5 0
BBX 5 5 0 0
BITMAP
C8
78
78
68
C8
ENDCHAR

STARTCHAR afii10031
ENCODING 205
SWIDTH 600 0
DWIDTH 5 0
BBX 4 5 0 0
BITMAP
D0
50
70
50
D0
ENDCHAR

STARTCHAR afii10032
ENCODING 206
SWIDTH 600 0
DWIDTH 5 0
BBX 4 5 0 0
BITMAP
60
D0
D0
D0
60
ENDCHAR

STARTCHAR afii10033
ENCODING 207
SWIDTH 600 0
DWIDTH 5 0
BBX 4 5 0 0
BITMAP
F0
50
50
50
D0
ENDCHAR

STARTCHAR afii10034
ENCODING 208
SWIDTH 600 0
DWIDTH 5 0
BBX 4 5 0 0
BITMAP
F0
50
70
40
E0
ENDCHAR

STARTCHAR afii10035
ENCODING 209
SWIDTH 600 0
DWIDTH 5 0
BBX 4 5 0 0
BITMAP
70
D0
C0
D0
60
ENDCHAR

STARTCHAR afii10036
ENCODING 210
SWIDTH 600 0
DWIDTH 5 0
BBX 5 5 0 0
BITMAP
F8
A8
20
20
70
ENDCHAR

STARTCHAR afii10037
ENCODING 211
SWIDTH 600 0
DWIDTH 5 0
BBX 5 5 0 0
BITMAP
D8
50
20
20
C0
ENDCHAR

STARTCHAR afii10038
ENCODING 212
SWIDTH 600 0
DWIDTH 5 0
BBX 5 5 0 0
BITMAP
20
F8
A8
F8
20
ENDCHAR

STARTCHAR afii10039
ENCODING 213
SWIDTH 600 0
DWIDTH 5 0
BBX 5 5 0 0
BITMAP
D0
70
20
70
D8
ENDCHAR

STARTCHAR afii10040
ENCODING 214
SWIDTH 600 0
DWIDTH 5 0
BBX 5 6 0 -1
BITMAP
D0
50
50
50
F8
08
ENDCHAR

STARTCHAR afii10041
ENCODING 215
SWIDTH 600 0
DWIDTH 5 0
BBX 4 5 0 0
BITMAP
D0
50
70
10
10
ENDCHAR

STARTCHAR afii10042
ENCODING 216
SWIDTH 600 0
DWIDTH 5 0
BBX 5 5 0 0
BITMAP
A8
A8
A8
A8
F8
ENDCHAR

STARTCHAR afii10043
ENCODING 217
SWIDTH 600 0
DWIDTH 5 0
BBX 5 6 0 -1
BITMAP
A8
A8
A8
A8
F8
08
ENDCHAR

STARTCHAR afii10044
ENCODING 218
SWIDTH 600 0
DWIDTH 5 0
BBX 4 5 0 0
BITMAP
E0
C0
70
50
F0
ENDCHAR

STARTCHAR afii10045
ENCODING 219
SWIDTH 600 0
DWIDTH 5 0
BBX 6 5 -1 0
BITMAP
E4
44
74
54
F4
ENDCHAR

STARTCHAR afii10046
ENCODING 220
SWIDTH 600 0
DWIDTH 5 0
BBX 4 5 0 0
BITMAP
E0
40
70
50
F0
ENDCHAR

STARTCHAR afii10047
ENCODING 221
SWIDTH 600 0
DWIDTH 5 0
BBX 4 5 0 0
BITMAP
E0
30
70
30
E0
ENDCHAR

STARTCHAR afii10048
ENCODING 222
SWIDTH 600 0
DWIDTH 5 0
BBX 5 5 0 0
BITMAP
B0
E8
E8
E8
B0
ENDCHAR

STARTCHAR afii10049
ENCODING 223
SWIDTH 600 0
DWIDTH 5 0
BBX 5 5 0 0
BITMAP
78
50
70
50
98
ENDCHAR

STARTCHAR afii10065
ENCODING 224
SWIDTH 600 0
DWIDTH 5 0
BBX 4 4 0 0
BITMAP
E0
70
B0
D0
ENDCHAR

STARTCHAR afii10066
ENCODING 225
SWIDTH 600 0
DWIDTH 5 0
BBX 4 6 0 0
BITMAP
70
C0
E0
D0
D0
60
ENDCHAR

STARTCHAR afii10067
ENCODING 226
SWIDTH 600 0
DWIDTH 5 0
BBX 4 4 0 0
BITMAP
F0
60
50
E0
ENDCHAR

STARTCHAR afii10068
ENCODING 227
SWIDTH 600 0
DWIDTH 5 0
BBX 4 4 0 0
BITMAP
F0
50
40
E0
ENDCHAR

STARTCHAR afii10069
ENCODING 228
SWIDTH 600 0
DWIDTH 5 0
BBX 5 5 0 -1
BITMAP
78
50
50
F8
88
ENDCHAR

STARTCHAR afii10070
ENCODING 229
SWIDTH 600 0
DWIDTH 5 0
BBX 4 4 0 0
BITMAP
70
F0
C0
70
ENDCHAR

STARTCHAR afii10072
ENCODING 230
SWIDTH 600 0
DWIDTH 5 0
BBX 5 4 0 0
BITMAP
A8
70
70
A8
ENDCHAR

STARTCHAR afii10073
ENCODING 231
SWIDTH 600 0
DWIDTH 5 0
BBX 4 4 0 0
BITMAP
F0
60
10
E0
ENDCHAR

STARTCHAR afii10074
ENCODING 232
SWIDTH 600 0
DWIDTH 5 0
BBX 4 4 0 0
BITMAP
D0
70
70
D0
ENDCHAR

STARTCHAR afii10075
ENCODING 233
SWIDTH 600 0
DWIDTH 5 0
BBX 4 6 0 0
BITMAP
60
00
D0
70
70
D0
ENDCHAR

STARTCHAR afii10076
ENCODING 234
SWIDTH 600 0
DWIDTH 5 0
BBX 5 4 0 0
BITMAP
D0
60
70
48
ENDCHAR

STARTCHAR afii10077
ENCODING 235
SWIDTH 600 0
DWIDTH 5 0
BBX 5 4 0 0
BITMAP
38
50
50
D8
ENDCHAR

STARTCHAR afii10078
ENCODING 236
SWIDTH 600 0
DWIDTH 5 0
BBX 5 4 0 0
BITMAP
D8
D8
A8
A8
ENDCHAR

STARTCHAR afii10079
ENCODING 237
SWIDTH 600 0
DWIDTH 5 0
BBX 4 4 0 0
BITMAP
D0
70
50
D0
ENDCHAR

STARTCHAR afii10080
ENCODING 238
SWIDTH 600 0
DWIDTH 5 0
BBX 4 4 0 0
BITMAP
60
D0
D0
60
ENDCHAR

STARTCHAR afii10081
ENCODING 239
SWIDTH 600 0
DWIDTH 5 0
BBX 4 4 0 0
BITMAP
F0
50
50
D0
ENDCHAR

STARTCHAR afii10082
ENCODING 240
SWIDTH 600 0
DWIDTH 5 0
BBX 4 5 0 -1
BITMAP
E0
50
50
60
E0
ENDCHAR

STARTCHAR afii10083
ENCODING 241
SWIDTH 600 0
DWIDTH 5 0
BBX 4 4 0 0
BITMAP
70
C0
D0
60
ENDCHAR

STARTCHAR afii10084
ENCODING 242
SWIDTH 600 0
DWIDTH 5 0
BBX 4 4 0 0
BITMAP
F0
60
60
60
ENDCHAR

STARTCHAR afii10085
ENCODING 243
SWIDTH 600 0
DWIDTH 5 0
BBX 4 5 0 -1
BITMAP
D0
50
70
30
E0
ENDCHAR

STARTCHAR afii10086
ENCODING 244
SWIDTH 600 0
DWIDTH 5 0
BBX 5 7 0 -1
BITMAP
60
20
F8
A8
A8
F8
20
ENDCHAR

STARTCHAR afii10087
ENCODING 245
SWIDTH 600 0
DWIDTH 5 0
BBX 4 4 0 0
BITMAP
D0
60
60
D0
ENDCHAR

STARTCHAR afii10088
ENCODING 246
SWIDTH 600 0
DWIDTH 5 0
BBX 5 5 0 -1
BITMAP
D0
50
50
F8
08
ENDCHAR

STARTCHAR afii10089
ENCODING 247
SWIDTH 600 0
DWIDTH 5 0
BBX 5 4 0 0
BITMAP
D0
50
70
18
ENDCHAR

STARTCHAR afii10090
ENCODING 248
SWIDTH 600 0
DWIDTH 5 0
BBX 5 4 0 0
BITMAP
A8
A8
A8
F8
ENDCHAR

STARTCHAR afii10091
ENCODING 249
SWIDTH 600 0
DWIDTH 5 0
BBX 5 5 0 -1
BITMAP
A8
A8
A8
F8
08
ENDCHAR

STARTCHAR afii10092
ENCODING 250
SWIDTH 600 0
DWIDTH 5 0
BBX 4 4 0 0
BITMAP
C0
E0
50
E0
ENDCHAR

STARTCHAR afii10093
ENCODING 251
SWIDTH 600 0
DWIDTH 5 0
BBX 5 4 0 0
BITMAP
C8
68
58
E8
ENDCHAR

STARTCHAR afii10094
ENCODING 252
SWIDTH 600 0
DWIDTH 5 0
BBX 4 4 0 0
BITMAP
C0
60
50
E0
ENDCHAR

STARTCHAR afii10095
ENCODING 253
SWIDTH 600 0
DWIDTH 5 0
BBX 4 4 0 0
BITMAP
E0
70
30
E0
ENDCHAR

STARTCHAR afii10096
ENCODING 254
SWIDTH 600 0
DWIDTH 5 0
BBX 5 4 0 0
BITMAP
B0
E8
E8
B0
ENDCHAR

STARTCHAR afii10097
ENCODING 255
SWIDTH 600 0
DWIDTH 5 0
BBX 4 4 0 0
BITMAP
70
A0
60
B0
ENDCHAR
ENDFONT
